# xmcd CD database file generated by Grip 2.96
# 
# Track frame offsets:
#       225
#       16767
#       34120
#       50163
#       60459
#       75417
#       91564
#       102902
#       118570
#       132353
#       148005
# 
# Disc length: 2136 seconds
# 
# Revision: 0
# Processed by: cddbd v1.4PL0 Copyright (c) Steve Scherf et al.
# Submitted via: Grip 2.96
# 
DISCID=8508550b
DTITLE=Curtis Grambo - You Oughta Know Love
DYEAR=1900
DGENRE=
TTITLE0=How Could I Be Over You
TTITLE1=It's A Good Thing You Left
TTITLE2=The Way She Walks Away
TTITLE3=Left With A Love
TTITLE4=Here For A Good Time
TTITLE5=Reachin' For The Moon
TTITLE6=Tear Stained Glass
TTITLE7=It's Not You
TTITLE8=She Can't Believe In Me
TTITLE9=Darlene
TTITLE10=You Oughta Know Love
EXTD=
EXTT0=
EXTT1=
EXTT2=
EXTT3=
EXTT4=
EXTT5=
EXTT6=
EXTT7=
EXTT8=
EXTT9=
EXTT10=
PLAYORDER=
